<?xml version="1.0" standalone="no"?>
<!DOCTYPE svg PUBLIC "-//W3C//DTD SVG 20010904//EN"
 "http://www.w3.org/TR/2001/REC-SVG-20010904/DTD/svg10.dtd">
<svg version="1.0" xmlns="http://www.w3.org/2000/svg"
 width="2048.000000pt" height="2048.000000pt" viewBox="0 0 2048.000000 2048.000000"
 preserveAspectRatio="xMidYMid meet">
<metadata>
Created by potrace 1.14, written by Peter Selinger 2001-2017
</metadata>
<g transform="translate(0.000000,2048.000000) scale(0.100000,-0.100000)"
fill="#000000" stroke="none">
<path d="M0 10240 l0 -10240 10240 0 10240 0 0 10240 0 10240 -10240 0 -10240
0 0 -10240z m10653 6560 c421 -20 710 -59 1115 -150 799 -179 1501 -481 2192
-943 74 -50 137 -93 140 -96 3 -3 32 -26 65 -51 513 -384 1058 -942 1399
-1434 151 -218 354 -565 460 -787 216 -453 319 -746 425 -1209 117 -510 158
-907 148 -1435 -8 -413 -39 -709 -118 -1112 -77 -397 -255 -932 -459 -1381
-162 -359 -447 -823 -744 -1212 -271 -355 -761 -858 -1131 -1160 -443 -362
-988 -693 -1492 -908 -381 -162 -802 -296 -1183 -377 -570 -121 -1246 -153
-1845 -89 -785 84 -1616 366 -2345 796 -686 405 -1246 871 -1741 1448 -108
126 -153 185 -366 475 -325 445 -627 1017 -851 1615 -146 391 -234 729 -296
1140 -16 102 -36 341 -47 545 -32 628 63 1323 268 1950 164 501 311 813 621
1310 430 691 1094 1389 1773 1863 79 56 155 109 169 120 56 42 376 234 541
325 598 329 1156 532 1814 660 440 86 982 122 1488 97z"/>
<path d="M10075 16540 c-779 -39 -1521 -214 -2163 -509 -519 -239 -878 -450
-1309 -772 -245 -183 -332 -258 -567 -489 -295 -291 -477 -499 -679 -777 -172
-238 -302 -440 -427 -663 -291 -519 -499 -1078 -595 -1603 -72 -392 -96 -658
-96 -1043 1 -716 150 -1374 488 -2154 102 -234 308 -625 428 -810 193 -299
306 -456 513 -713 442 -549 1070 -1080 1794 -1513 168 -101 570 -301 748 -372
406 -162 822 -276 1233 -336 290 -43 420 -51 817 -50 566 1 911 43 1397 169
654 170 1254 445 1878 860 94 62 195 133 226 157 31 24 90 69 131 100 142 109
388 329 576 515 566 562 957 1093 1281 1742 195 389 364 867 456 1289 74 338
104 571 129 1012 13 214 13 275 1 465 -41 623 -125 1084 -285 1565 -138 413
-377 890 -646 1291 -192 286 -598 780 -627 762 -6 -4 -7 -1 -3 6 10 16 -24 53
-41 46 -9 -3 -11 0 -7 7 4 7 -17 34 -54 67 -33 31 -112 105 -176 164 -63 60
-120 106 -125 102 -7 -4 -8 1 -4 11 5 14 3 16 -11 11 -9 -4 -15 -3 -12 2 11
17 -365 318 -384 306 -6 -3 -9 -1 -8 5 8 36 -740 495 -773 474 -7 -4 -9 -3 -6
3 8 13 -264 144 -473 228 -420 170 -884 294 -1445 385 -317 52 -825 78 -1180
60z m202 -513 c79 -217 219 -587 223 -587 3 0 14 21 24 48 10 26 63 146 116
267 53 121 106 243 118 270 l21 50 58 0 c86 -1 171 -8 181 -14 5 -3 -31 -89
-81 -191 -49 -102 -133 -279 -187 -395 -93 -198 -247 -515 -255 -523 -6 -6
-71 139 -137 303 -33 83 -94 233 -135 335 -42 102 -102 249 -134 328 -33 79
-59 147 -59 152 0 8 46 13 175 18 l50 2 22 -63z m1406 -91 c187 -41 429 -104
440 -115 10 -10 -17 -169 -31 -183 -6 -6 -334 61 -374 77 -18 7 -22 -2 -59
-158 -22 -92 -24 -117 -6 -117 17 0 260 -71 269 -79 6 -6 -17 -100 -49 -204
-7 -22 -22 -19 -179 33 -81 27 -116 35 -119 27 -2 -7 -19 -77 -39 -157 -19
-80 -37 -152 -41 -161 -7 -20 -7 -20 150 -66 66 -19 142 -44 169 -56 l49 -21
-6 -71 c-9 -103 -11 -106 -61 -99 -22 4 -84 18 -136 31 -52 14 -169 44 -260
67 l-165 43 3 40 c2 39 68 316 117 498 14 50 43 158 65 240 63 232 132 455
142 455 4 0 59 -11 121 -24z m-3524 -345 c6 -10 41 -43 78 -72 100 -78 139
-114 473 -438 354 -343 370 -360 370 -371 0 -11 -155 -70 -184 -70 -14 0 -54
27 -102 70 -129 113 -117 111 -275 57 -74 -25 -154 -48 -179 -52 -102 -14 -98
-12 -109 -68 -6 -29 -16 -95 -22 -147 -6 -52 -18 -107 -26 -121 -11 -19 -44
-39 -113 -68 -54 -22 -103 -41 -109 -41 -8 0 -10 11 -6 33 10 58 65 467 90
682 57 470 81 625 96 625 5 0 13 -9 18 -19z m4636 -97 c214 -96 338 -193 388
-302 18 -38 22 -65 22 -147 0 -92 -3 -105 -33 -170 -37 -79 -88 -137 -147
-167 -31 -16 -58 -21 -122 -20 -48 0 -83 -4 -83 -9 0 -16 70 -389 86 -454 20
-86 19 -135 -4 -135 -17 0 -87 24 -152 53 -19 8 -47 20 -62 25 -20 8 -27 20
-32 49 -54 363 -92 533 -117 533 -11 0 -52 -86 -120 -250 -28 -68 -47 -100
-58 -100 -23 0 -165 48 -185 63 -18 13 -17 14 129 357 31 74 76 180 99 235
109 255 131 306 172 397 24 54 44 102 44 107 0 13 12 8 175 -65z m-2406 -766
l207 -277 160 -5 c284 -7 699 -85 989 -186 852 -297 1586 -839 2145 -1585 249
-333 473 -758 612 -1165 74 -216 149 -577 164 -787 6 -94 5 -101 -12 -106 -11
-3 55 -6 146 -7 91 -1 173 -5 184 -9 14 -6 1 -18 -70 -61 -170 -104 -278 -207
-665 -630 -108 -118 -243 -260 -300 -316 -428 -415 -934 -715 -1524 -902 -260
-83 -267 -85 -295 -72 -22 9 -21 10 15 6 22 -2 34 -2 28 1 -20 7 -15 29 10 46
l22 16 -24 0 c-13 1 -41 15 -62 32 -21 17 -65 39 -96 51 -71 24 -71 25 -47 42
10 8 15 18 11 23 -5 4 -17 -2 -27 -14 -17 -21 -20 -22 -50 -9 -33 13 -74 11
-65 -4 3 -5 1 -11 -5 -15 -5 -3 -10 -1 -10 6 0 7 -8 6 -25 -5 -14 -9 -25 -12
-25 -6 0 6 12 15 26 20 14 6 66 30 115 55 64 32 98 44 117 40 22 -4 23 -4 7 4
l-20 9 20 8 c11 4 85 42 165 84 80 43 192 102 250 132 149 78 248 138 230 138
-8 0 -44 -14 -80 -31 -36 -17 -87 -40 -114 -50 -40 -16 -175 -76 -486 -217
-19 -8 -91 -42 -159 -74 -68 -32 -125 -58 -127 -58 -2 0 -37 -16 -78 -35 -74
-34 -125 -48 -76 -20 14 8 21 14 16 15 -14 0 40 40 56 40 7 1 0 7 -17 15 -17
9 -21 13 -8 9 12 -2 24 0 28 6 3 6 11 8 16 4 5 -3 7 -10 4 -15 -4 -5 -2 -9 2
-9 5 0 17 15 28 33 10 17 23 35 28 38 4 3 -13 6 -39 6 -27 0 -50 5 -52 12 -6
17 -32 13 -32 -5 0 -11 -9 -8 -37 15 -34 28 -37 29 -49 13 -12 -16 -13 -15
-14 4 0 12 -7 27 -15 34 -19 16 -21 106 -2 113 10 4 10 7 0 18 -7 7 -13 23
-13 36 0 14 -6 23 -15 23 -8 0 -15 -4 -15 -10 0 -5 -7 -10 -15 -10 -23 0 -75
-41 -68 -53 3 -6 1 -7 -5 -3 -5 3 -20 -10 -32 -29 -12 -20 -25 -34 -27 -31
-12 12 94 136 116 136 6 0 10 3 9 8 -4 20 15 39 35 36 12 -2 17 -2 10 2 -21
10 -3 32 120 140 162 142 153 135 174 139 10 1 17 7 16 13 -3 13 102 92 282
213 378 253 815 461 1223 580 343 100 965 235 1197 259 139 15 162 19 147 29
-6 4 -16 29 -21 57 -92 474 -217 856 -397 1217 -79 157 -131 246 -262 447
-132 202 -165 246 -357 470 -328 383 -701 709 -1053 920 -230 137 -604 315
-828 393 -289 100 -702 187 -893 187 -103 0 -125 7 -146 46 -10 19 -25 40 -33
46 -8 7 5 -19 28 -57 61 -100 191 -353 243 -475 52 -120 89 -243 146 -485 49
-211 58 -256 76 -431 36 -336 6 -759 -76 -1064 -45 -170 -61 -214 -70 -199 -5
8 -9 19 -9 24 0 6 4 4 9 -3 5 -9 14 8 25 52 19 76 20 87 5 66 -8 -12 -9 -11
-5 5 13 54 17 137 7 131 -6 -4 -11 -14 -11 -23 0 -21 -36 -51 -82 -70 -35 -14
-51 -33 -28 -33 24 0 6 -16 -31 -28 -23 -7 -68 -31 -100 -52 -32 -22 -63 -40
-68 -40 -6 0 -23 -13 -38 -30 -14 -16 -32 -30 -39 -30 -7 0 -15 -8 -18 -18 -9
-27 -49 -45 -89 -40 -30 3 -33 1 -29 -17 5 -17 3 -18 -10 -7 -22 18 -37 -3
-50 -77 -6 -34 -15 -61 -20 -61 -4 0 -8 150 -8 333 0 474 -21 811 -74 1188
-14 96 -28 210 -31 254 -9 114 -13 118 -42 45 -61 -160 -97 -494 -138 -1295
-35 -682 -43 -806 -43 -690 0 99 -2 110 -36 175 -18 35 -28 44 -45 42 -15 -2
-33 7 -51 27 -18 19 -51 36 -85 46 -30 9 -55 21 -55 26 0 5 -7 9 -15 9 -8 0
-15 4 -15 9 0 5 -15 14 -32 21 -18 7 -45 26 -60 42 -32 35 -94 58 -82 30 4 -9
8 -37 10 -62 1 -25 6 -58 10 -75 11 -47 -2 -26 -24 40 -11 33 -37 107 -57 165
-84 242 -151 503 -179 695 -66 448 -29 809 134 1295 62 185 143 376 206 483
25 44 44 81 42 82 -7 8 -291 -35 -458 -69 -388 -78 -704 -192 -1075 -388 -561
-296 -1026 -699 -1448 -1257 -187 -246 -308 -440 -428 -684 -77 -158 -95 -186
-48 -77 39 93 207 418 220 426 5 3 9 12 9 21 0 10 -10 4 -30 -18 -16 -19 -30
-41 -30 -50 0 -9 -7 -22 -15 -29 -9 -8 -15 -9 -15 -2 0 6 5 14 10 17 14 9 12
22 -3 22 -10 0 -13 -11 -11 -34 1 -18 -1 -33 -6 -33 -5 0 -15 -3 -24 -6 -12
-5 -16 0 -16 17 -1 23 -1 23 -12 4 -6 -11 -16 -24 -22 -28 -6 -5 -1 -5 12 -2
12 3 22 2 22 -3 0 -15 -26 -33 -35 -24 -5 4 -5 -1 -2 -11 4 -10 7 -23 7 -28 0
-5 5 -9 11 -9 6 0 9 7 5 15 -3 8 -1 15 4 15 13 0 13 -27 -1 -35 -6 -4 -14 -17
-19 -29 -7 -18 -8 -17 -8 10 1 17 -3 38 -9 48 -8 14 -15 5 -42 -49 -18 -36
-36 -64 -38 -61 -5 5 112 233 128 250 6 6 9 5 9 -3 0 -7 5 -9 11 -5 8 4 7 9
-2 15 -16 9 -11 18 79 159 155 241 270 396 418 565 318 364 571 591 904 810
191 126 297 186 483 274 321 153 765 296 1072 345 143 23 350 46 416 46 l55 0
121 183 c67 100 147 226 178 280 32 54 62 96 67 95 5 -2 102 -128 217 -280z
m4108 167 c0 -8 -4 -12 -9 -9 -5 3 -6 10 -3 15 9 13 12 11 12 -6z m-7454 -85
c229 -87 409 -324 424 -556 14 -208 -76 -348 -392 -617 -71 -61 -133 -115
-137 -121 -7 -11 -17 -1 -116 124 -37 46 -143 179 -235 295 -156 194 -377 507
-377 532 0 6 20 23 45 37 25 15 71 48 102 74 163 135 301 225 381 248 71 20
233 12 305 -16z m6887 11 c0 -5 57 -60 127 -123 267 -238 353 -331 382 -417
28 -83 7 -232 -49 -347 -114 -233 -396 -434 -610 -434 -93 1 -227 80 -421 251
-53 48 -129 110 -168 139 -39 29 -71 57 -71 63 0 5 44 57 98 115 53 58 147
162 207 232 61 69 193 217 294 328 164 180 211 223 211 193z m750 -77 c0 -8
-19 -13 -24 -6 -3 5 1 9 9 9 8 0 15 -2 15 -3z m-5650 -669 c0 -11 -54 -26 -69
-19 -12 5 -8 9 14 14 39 10 55 11 55 5z m-84 -29 c12 -12 10 -16 -14 -25 l-27
-11 28 4 c15 2 30 -1 33 -5 6 -10 -46 -12 -70 -3 -9 3 -13 10 -10 15 3 5 -3 6
-12 2 -11 -4 -13 -8 -6 -11 18 -6 14 -42 -5 -49 -24 -9 -43 -29 -36 -37 4 -3
22 -6 40 -6 34 0 34 0 15 -21 -15 -15 -26 -18 -47 -13 -17 4 -30 2 -35 -6 -5
-7 -10 1 -14 23 -4 20 -12 38 -19 41 -9 3 -8 7 2 14 11 8 9 11 -10 14 -23 3
-22 4 11 20 29 14 148 64 158 67 2 1 10 -5 18 -13z m104 4 c0 -5 -7 -10 -15
-10 -8 0 -15 5 -15 10 0 6 7 10 15 10 8 0 15 -4 15 -10z m-380 -119 c0 -12
-30 -22 -43 -14 -7 4 -3 9 9 14 26 10 34 10 34 0z m-2749 -118 c129 -134 278
-295 426 -463 56 -63 131 -144 167 -180 39 -37 66 -73 66 -85 0 -15 -68 -132
-97 -165 -7 -8 -239 229 -434 447 -212 236 -331 379 -356 428 l-16 29 59 53
c33 29 62 53 65 53 3 0 57 -53 120 -117z m2684 87 c-3 -5 -14 -10 -23 -10 -15
0 -15 2 -2 10 20 13 33 13 25 0z m395 1 c0 -8 -31 -23 -77 -36 -13 -3 -23 -13
-23 -21 0 -8 -7 -14 -15 -14 -8 0 -15 -7 -15 -16 0 -11 -5 -14 -16 -10 -9 3
-20 6 -25 6 -13 0 -11 27 2 36 6 3 15 0 20 -7 7 -11 9 -11 9 -1 0 23 27 42 60
42 17 0 38 7 46 15 17 17 34 20 34 6z m-372 -49 c17 -13 32 -31 32 -38 0 -8 6
-13 12 -11 15 3 28 -103 22 -183 -5 -77 -22 -89 -116 -83 -40 3 -77 9 -82 13
-5 5 -17 4 -26 -3 -14 -8 -24 -7 -44 6 -14 9 -36 17 -50 17 -35 0 -56 10 -56
27 0 11 11 14 43 13 66 -3 67 -3 67 35 0 19 5 35 10 35 6 0 10 -18 10 -40 0
-29 -4 -40 -15 -40 -18 0 -19 -12 -3 -28 17 -17 48 -15 48 3 0 8 5 15 11 15 8
0 8 5 -1 15 -7 9 -13 50 -14 105 0 49 -3 90 -6 90 -3 0 -11 -9 -17 -19 -10
-15 -10 -20 0 -24 7 -2 -3 -4 -20 -5 -35 -1 -45 13 -15 21 9 3 6 4 -9 4 -20
-1 -25 -5 -21 -22 4 -26 -26 -54 -61 -57 -14 -1 -24 -5 -21 -9 2 -4 -2 -10 -8
-12 -9 -4 -10 -6 -1 -6 6 -1 15 4 18 9 3 6 14 10 23 10 14 0 14 -2 3 -9 -8 -5
-15 -20 -17 -33 -1 -12 -3 -25 -3 -27 -1 -2 -10 6 -20 18 -12 13 -22 18 -26
11 -3 -5 -1 -10 4 -10 6 0 11 -6 11 -14 0 -8 6 -17 13 -19 8 -4 9 -6 0 -6 -6
-1 -18 6 -27 14 -21 21 -28 19 -14 -5 7 -10 10 -20 8 -22 -3 -2 -21 -14 -40
-28 l-35 -24 28 37 c15 20 23 37 18 37 -6 0 -16 -9 -23 -20 -7 -11 -16 -20
-21 -20 -4 0 11 23 33 51 22 28 40 54 40 58 0 20 133 138 194 171 79 44 108
44 164 2z m-228 -151 c0 -5 -7 -12 -16 -15 -14 -5 -15 -4 -4 9 14 17 20 19 20
6z m-61 -202 c-14 -8 -29 -3 -29 11 0 4 9 6 21 3 15 -4 17 -8 8 -14z m48 15
c-3 -3 -12 -4 -19 -1 -8 3 -5 6 6 6 11 1 17 -2 13 -5z m33 2 c0 -3 -4 -8 -10
-11 -5 -3 -10 -1 -10 4 0 6 5 11 10 11 6 0 10 -2 10 -4z m6785 -128 c21 -35
93 -153 161 -264 68 -110 124 -206 124 -211 0 -6 -29 -23 -65 -38 -64 -28 -65
-28 -86 -9 -12 10 -60 72 -107 138 -47 65 -92 120 -99 123 -20 8 -72 -17 -78
-38 -7 -22 12 -63 90 -194 45 -74 56 -101 48 -113 -5 -9 -38 -32 -73 -51 -47
-26 -65 -31 -68 -22 -3 8 -43 72 -90 142 -62 93 -91 129 -105 129 -29 0 -87
-48 -87 -72 0 -25 56 -118 123 -205 27 -36 47 -66 45 -67 -30 -23 -130 -75
-153 -80 -30 -6 -32 -4 -108 116 -105 167 -100 162 -129 147 -53 -28 -123 -82
-120 -93 2 -6 32 -58 66 -116 118 -196 245 -415 250 -430 7 -18 -125 -110
-158 -110 -13 0 -30 14 -45 38 -30 45 -96 153 -121 196 -27 49 -173 294 -217
366 -40 65 -93 165 -93 175 0 2 37 23 81 46 45 22 148 78 228 123 80 46 209
117 286 159 77 42 210 121 295 176 85 55 158 101 161 101 3 0 23 -28 44 -62z
m-9180 -283 c53 -79 116 -187 141 -239 44 -93 83 -221 71 -233 -7 -7 -126 19
-332 73 -71 19 -272 71 -445 115 -173 45 -317 83 -319 85 -5 5 63 149 83 176
12 17 20 16 132 -7 111 -24 339 -80 499 -124 39 -10 71 -18 73 -16 1 1 -10 57
-24 125 -25 116 -26 124 -10 156 8 19 20 34 25 34 6 0 53 -65 106 -145z m1778
-112 c66 -75 270 -258 622 -559 273 -233 597 -555 725 -722 214 -278 395 -579
498 -827 66 -159 164 -455 158 -478 -2 -9 -1 -15 3 -12 4 2 22 -52 39 -120 36
-140 36 -138 22 -130 -5 3 -10 19 -10 34 0 16 -7 34 -15 41 -8 7 -13 16 -10
20 2 4 -7 18 -21 31 -25 24 -26 24 -40 5 -8 -11 -14 -28 -14 -38 0 -11 -12
-30 -27 -43 -24 -21 -26 -26 -13 -35 13 -9 11 -14 -12 -35 -29 -25 -37 -55
-15 -55 6 0 -1 -8 -18 -18 -16 -11 -41 -33 -54 -50 -13 -18 -30 -32 -38 -32
-7 0 -18 -12 -24 -27 -8 -22 -7 -34 6 -55 9 -16 13 -33 9 -40 -5 -7 -2 -9 7
-6 10 4 14 -3 16 -20 1 -22 -1 -23 -8 -9 -11 19 -29 23 -29 6 0 -5 4 -8 9 -5
7 5 19 -17 25 -46 2 -11 17 -23 28 -23 6 0 13 -6 16 -14 3 -8 0 -11 -7 -7 -7
5 -9 1 -5 -8 3 -9 11 -13 17 -9 6 3 7 1 3 -5 -4 -6 4 -28 17 -49 39 -61 79
-144 73 -151 -3 -3 -6 -1 -6 5 0 27 -340 569 -579 923 -108 160 -248 368 -462
686 -30 44 -87 140 -128 212 -41 72 -77 130 -79 128 -2 -3 32 -76 76 -163 80
-160 285 -500 473 -785 262 -397 412 -630 524 -813 286 -469 519 -1124 560
-1572 4 -40 10 -73 14 -73 5 0 7 42 7 93 -1 50 4 173 11 272 7 99 16 504 20
900 4 396 10 704 12 685 l4 -35 7 30 c7 27 8 26 9 -15 2 -42 3 -44 16 -26 15
19 15 19 16 -5 l1 -24 8 25 c4 14 8 40 9 58 1 18 5 31 10 27 6 -3 12 12 14 32
2 21 5 -412 6 -962 1 -550 6 -1159 10 -1352 6 -312 9 -355 24 -370 9 -9 19
-14 22 -11 12 12 24 175 30 418 7 271 25 569 50 815 8 83 15 206 15 275 1 296
38 790 60 798 4 2 6 11 3 22 -3 10 2 60 11 111 9 51 16 97 16 103 0 6 5 4 11
-4 8 -12 9 -9 5 12 -8 37 4 94 16 76 7 -9 8 -7 4 8 -6 20 14 111 47 219 9 28
32 105 52 172 45 157 114 335 126 328 5 -4 6 0 3 8 -11 29 154 336 289 541
190 287 498 596 827 827 224 159 464 312 675 434 179 102 453 240 461 232 9
-9 5 -206 -6 -317 -76 -742 -321 -1378 -738 -1917 -170 -218 -484 -515 -867
-818 -27 -22 -102 -86 -166 -142 -401 -353 -623 -707 -719 -1151 -23 -103 -64
-450 -74 -617 l-6 -100 21 50 c22 53 36 74 25 39 -8 -28 40 -76 54 -54 6 10 3
21 -8 35 -17 20 -17 20 4 3 25 -22 34 -23 34 -4 0 8 4 17 9 21 5 3 -1 -30 -15
-72 -57 -183 -66 -231 -71 -426 l-6 -187 26 -38 c14 -20 38 -80 52 -132 45
-161 56 -192 103 -280 66 -124 155 -248 279 -390 180 -206 223 -235 343 -233
246 4 621 129 1075 357 266 134 414 227 680 426 356 266 818 722 1132 1117
154 193 353 493 512 771 58 100 88 135 47 54 -14 -27 -22 -53 -18 -57 4 -5 2
-5 -4 -2 -6 3 -26 -25 -48 -66 -20 -40 -29 -61 -19 -47 10 13 28 35 40 48 13
14 20 28 17 33 -3 5 -1 9 5 9 6 0 19 17 30 38 11 20 20 33 21 29 0 -5 -24 -57
-54 -117 -222 -440 -510 -839 -881 -1219 -543 -557 -1104 -948 -1762 -1229
-381 -163 -565 -218 -968 -291 -204 -37 -289 -46 -279 -29 5 8 2 9 -10 5 -47
-18 -160 -48 -230 -61 l-78 -14 38 31 c71 56 123 118 130 152 8 42 -11 68 -85
121 -30 21 -103 85 -162 142 -58 56 -109 102 -113 102 -19 0 12 -86 62 -170
74 -126 80 -175 29 -270 -22 -43 -48 -75 -76 -95 -40 -28 -49 -30 -157 -34
-79 -2 -114 0 -114 8 0 6 15 11 33 11 78 1 175 80 198 162 9 33 9 59 0 110
-10 63 -57 178 -72 178 -4 0 -5 -17 -2 -37 6 -46 -11 -142 -33 -189 -43 -91
-151 -162 -288 -190 -82 -17 -83 -17 -251 21 l-60 13 51 1 c83 2 215 31 268
59 57 31 115 94 148 160 21 43 23 58 21 172 -3 166 -23 314 -43 317 -34 6 -43
-14 -51 -123 -17 -215 -40 -289 -119 -377 -46 -52 -94 -80 -234 -135 -133 -52
-199 -50 -462 16 -460 116 -839 274 -1304 542 -206 119 -245 145 -460 304
-394 291 -769 653 -1084 1045 -167 208 -375 532 -432 672 -35 86 -29 93 12 14
20 -39 45 -76 55 -83 11 -7 17 -18 14 -23 -4 -5 -1 -17 4 -26 6 -11 11 -13 11
-5 0 7 5 10 11 6 7 -4 -5 22 -25 57 -46 78 -69 129 -62 136 3 3 8 -6 12 -21 3
-14 10 -26 15 -26 5 0 9 -5 9 -11 0 -16 131 -232 187 -310 291 -402 688 -844
1018 -1134 44 -38 89 -78 100 -88 141 -128 599 -436 862 -581 185 -102 578
-259 795 -318 123 -33 322 -33 433 1 145 44 278 112 257 133 -12 12 -55 1 -47
-13 4 -5 -1 -9 -10 -9 -10 0 -13 -5 -9 -12 4 -6 3 -8 -3 -5 -6 4 -31 -4 -55
-18 -23 -14 -50 -25 -58 -24 -8 0 7 11 34 25 26 14 88 63 136 110 48 46 89 81
92 78 3 -3 9 0 14 7 4 8 3 10 -4 5 -24 -15 -11 11 21 42 18 18 37 29 42 25 4
-5 5 -3 2 4 -4 6 15 47 41 90 82 133 112 207 146 361 43 189 46 434 7 585 -38
150 -137 378 -223 514 -22 35 -36 68 -32 74 4 7 3 9 -3 6 -6 -4 -25 14 -43 39
-36 51 -81 98 -126 132 -25 20 -26 22 -6 17 84 -23 -83 130 -294 271 -98 65
-196 128 -218 141 -23 12 -40 26 -39 32 2 6 -3 8 -10 6 -6 -3 -50 20 -97 50
-47 29 -119 75 -160 101 -41 26 -104 66 -140 89 -36 23 -150 94 -255 157 -104
63 -221 134 -260 158 -38 24 -111 67 -162 95 -51 28 -98 56 -105 62 -28 23
-172 94 -148 73 70 -59 320 -233 602 -419 70 -46 125 -87 122 -92 -3 -5 2 -6
10 -3 10 4 16 1 16 -7 0 -7 3 -10 6 -6 3 3 29 -10 56 -29 28 -19 54 -34 59
-34 19 0 7 -21 -17 -30 -21 -8 -29 -7 -39 6 -7 10 -19 15 -29 11 -19 -8 -22
-37 -2 -37 24 0 27 -38 3 -46 -19 -6 -19 -7 9 -19 l29 -12 -27 -8 c-16 -4 -28
-12 -28 -17 0 -6 -14 -8 -35 -4 -30 6 -40 3 -67 -23 l-32 -30 28 -10 c15 -6
33 -11 39 -10 7 0 -4 7 -23 14 -22 8 -28 13 -15 13 29 0 96 -26 70 -28 -20 -1
-20 -1 -1 -15 27 -20 22 -19 -62 13 -40 15 -69 31 -65 35 4 5 0 5 -8 2 -9 -3
-85 23 -170 58 -85 35 -197 81 -249 102 -200 82 -469 231 -720 398 -301 201
-488 360 -939 796 -308 297 -360 344 -526 467 -242 180 -248 185 -238 195 6 6
103 11 234 11 202 1 239 -1 379 -26 390 -68 1284 -288 1548 -381 608 -212
1157 -605 1619 -1156 172 -206 254 -330 535 -809 171 -291 268 -538 328 -832
6 -32 16 -58 22 -58 6 0 8 11 3 28 -3 15 -10 101 -15 192 -13 257 -52 465
-146 769 -91 294 -120 360 -244 565 -143 237 -280 398 -617 723 -373 358 -578
566 -685 691 -281 329 -465 687 -588 1141 -77 284 -111 533 -111 811 -1 182
14 299 60 475 16 61 32 123 35 138 8 32 16 29 59 -20z m-635 -500 c-10 -2 -26
-2 -35 0 -10 3 -2 5 17 5 19 0 27 -2 18 -5z m-98 -73 c0 -5 -9 -14 -20 -20
-11 -6 -20 -15 -20 -20 0 -5 -5 -21 -10 -36 -9 -22 -13 -25 -23 -14 -9 10 -9
13 1 17 6 3 12 16 12 29 0 13 6 24 13 24 8 0 7 4 -3 11 -13 9 -12 10 2 5 10
-3 20 -1 23 4 8 13 25 13 25 0z m63 -49 c20 -44 21 -51 7 -51 -5 0 -10 6 -10
14 0 9 -7 12 -20 9 -23 -6 -49 -33 -31 -33 6 0 11 6 11 13 1 6 10 1 21 -12
l20 -24 -20 -21 c-22 -22 -41 -15 -22 8 8 9 8 16 2 20 -6 4 -19 -12 -31 -36
-21 -44 -27 -66 -9 -35 5 9 14 17 20 17 6 0 -4 -14 -20 -32 -17 -18 -32 -30
-35 -27 -11 11 7 139 19 139 7 0 10 9 8 24 -4 17 0 25 17 29 12 3 24 15 27 26
7 28 27 17 46 -28z m82 20 c-3 -5 -1 -13 5 -16 7 -4 2 -14 -12 -27 -13 -10
-33 -28 -46 -39 -27 -23 -28 -23 -35 -5 -4 10 -1 13 7 10 7 -3 21 6 30 20 9
15 24 26 32 26 13 0 14 3 5 14 -9 11 -9 15 1 19 19 8 20 8 13 -2z m-215 -15
c0 -3 -4 -8 -10 -11 -5 -3 -10 -1 -10 4 0 6 5 11 10 11 6 0 10 -2 10 -4z m-26
-98 c6 18 26 32 26 18 0 -2 2 -11 5 -18 6 -14 -40 -77 -48 -68 -3 3 -7 30 -11
60 -6 54 -6 54 8 20 12 -33 13 -34 20 -12z m-34 -85 c-1 -24 -2 -26 -11 -10
-5 9 -7 22 -4 27 10 17 15 11 15 -17z m26 -30 c-10 -10 -19 5 -10 18 6 11 8
11 12 0 2 -7 1 -15 -2 -18z m-49 -30 c-3 -10 -5 -4 -5 12 0 17 2 24 5 18 2 -7
2 -21 0 -30z m20 5 c-3 -8 -6 -5 -6 6 -1 11 2 17 5 13 3 -3 4 -12 1 -19z m19
-59 c-9 -19 -15 -29 -16 -24 0 6 -3 21 -5 35 -5 22 -4 22 4 5 9 -18 10 -17 10
10 1 20 4 26 11 19 7 -7 6 -21 -4 -45z m-649 -22 c1 -29 1 -30 -8 -9 -5 13 -7
28 -3 33 8 14 9 12 11 -24z m586 -58 c-6 -6 -7 3 -4 23 4 28 6 29 9 9 2 -13 0
-27 -5 -32z m80 -24 c-3 -9 -8 -14 -10 -11 -3 3 -2 9 2 15 9 16 15 13 8 -4z
m-87 -75 c0 -12 -4 -16 -9 -11 -5 5 -6 14 -3 20 10 15 12 14 12 -9z m2755
-327 c-12 -20 -14 -14 -5 12 4 9 9 14 11 11 3 -2 0 -13 -6 -23z m-13 -50 c0
-10 3 -27 7 -38 6 -14 5 -17 -3 -10 -10 10 -15 29 -13 53 2 19 10 14 9 -5z
m-2591 -67 c-4 -10 0 -12 15 -8 15 4 17 7 6 14 -8 6 2 8 30 5 61 -7 157 -57
156 -80 -2 -14 3 -16 20 -11 20 6 20 5 -2 -11 -24 -18 -26 -44 -7 -87 10 -24
-23 -25 -40 -1 -11 14 -13 11 -19 -21 -5 -27 -14 -40 -32 -46 -35 -14 -44 -12
-44 6 0 14 -2 15 -17 3 -15 -13 -15 -14 0 -17 10 -2 17 -8 17 -13 0 -11 -48
-24 -57 -15 -4 3 -15 -2 -26 -11 -18 -16 -20 -16 -14 -1 3 9 3 19 -1 23 -4 4
-7 12 -7 18 0 22 -35 19 -55 -5 l-20 -23 6 30 c6 29 6 29 -11 10 -16 -20 -16
-20 -10 5 3 14 12 54 21 90 9 40 28 83 50 113 34 46 51 61 41 33z m8486 -928
c-25 -65 -120 -283 -160 -370 -20 -42 -41 -74 -46 -71 -6 3 -7 1 -4 -5 4 -5 4
-18 1 -27 -6 -13 -9 -14 -16 -3 -7 10 -8 8 -4 -5 7 -21 -21 -80 -33 -72 -10 5
-25 -25 -16 -33 3 -3 5 1 5 8 0 7 3 11 6 7 4 -3 -8 -29 -25 -57 -17 -28 -31
-53 -31 -55 0 -8 -110 -186 -138 -222 -13 -18 -29 -30 -35 -26 -6 4 -7 1 -3
-6 9 -14 -22 -53 -36 -45 -5 3 -6 15 -3 27 5 20 5 20 -5 4 -9 -13 -9 -22 0
-32 14 -16 4 -39 -12 -29 -7 4 -8 2 -4 -4 9 -15 -53 -94 -67 -85 -6 3 -7 1 -4
-4 4 -6 -8 -28 -26 -49 -80 -93 -180 -199 -190 -203 -8 -3 -7 2 2 12 7 10 11
17 7 17 -4 0 1 11 10 25 9 14 20 23 24 20 4 -3 11 2 14 11 3 8 2 12 -4 9 -5
-3 -7 1 -4 9 3 8 12 12 21 9 12 -5 14 -1 8 18 -4 13 -13 27 -19 31 -6 4 -7 10
-3 15 5 4 12 2 16 -5 10 -16 61 1 61 21 0 7 7 22 16 33 15 18 15 18 10 0 -6
-16 -4 -17 9 -6 8 7 15 18 15 25 0 7 7 16 16 19 10 4 13 13 9 28 -5 18 -4 20
4 8 8 -12 11 -12 11 -1 0 7 6 11 15 7 18 -6 19 -1 5 25 -12 22 -1 25 20 7 8
-7 11 -9 7 -4 -3 5 1 15 10 21 15 11 15 15 4 29 -12 14 -11 19 5 30 22 16 38
11 30 -10 -3 -8 -1 -14 4 -14 10 0 14 13 11 43 -1 9 5 20 13 23 9 3 16 17 16
31 0 13 4 22 9 19 5 -3 11 3 14 14 6 22 -8 28 -17 8 -4 -7 -4 -2 -2 10 8 43
-2 52 -60 52 l-54 0 0 34 c0 18 7 53 15 76 15 42 14 43 -10 66 -14 13 -25 27
-25 32 0 15 56 63 64 55 4 -5 6 -1 4 7 -1 8 2 14 9 13 8 -2 10 4 6 14 -5 13
-2 15 12 9 11 -4 16 -4 12 0 -9 10 43 65 54 58 5 -3 6 3 2 12 -5 13 -3 16 10
11 11 -4 14 -2 10 9 -4 11 1 14 21 10 15 -3 24 -1 21 5 -4 5 -11 6 -17 3 -6
-4 -8 -1 -6 7 3 8 11 13 17 11 7 -1 10 2 7 7 -8 12 20 34 33 27 5 -4 13 -1 17
5 4 8 3 9 -4 5 -17 -10 -15 3 4 21 18 18 64 27 64 12 0 -5 -5 -9 -12 -9 -6 0
-9 -2 -6 -5 8 -8 36 5 41 19 4 9 -4 12 -24 11 l-30 -2 32 33 c17 18 38 30 45
27 9 -3 12 0 9 8 -3 9 24 40 68 80 56 52 73 62 74 48 1 -10 -1 -18 -5 -17 -16
5 -52 -24 -50 -39 2 -11 -6 -19 -22 -23 -27 -6 -28 -10 -16 -53 5 -16 14 -26
21 -23 10 3 10 -1 1 -19 l-11 -24 -8 32 c-11 39 -12 41 -27 32 -9 -6 -9 -10 1
-16 21 -13 -7 -12 -34 2 -20 10 -20 9 2 -9 27 -22 25 -57 -4 -57 -11 0 -19 -6
-17 -12 1 -7 -4 -12 -10 -10 -22 4 -21 -41 1 -53 18 -9 21 -8 21 7 0 10 5 25
10 33 7 12 11 10 18 -10 9 -23 11 -23 17 -6 5 10 3 21 -3 25 -8 5 -8 17 -3 36
5 17 10 24 10 17 1 -7 10 -22 20 -34 20 -20 20 -20 14 0 -3 15 0 20 13 19 9
-1 19 5 22 13 5 13 3 13 -11 1 -15 -12 -17 -11 -17 3 0 14 9 19 30 18 3 0 6
15 7 34 2 25 -1 34 -12 34 -8 0 -15 5 -15 10 0 6 2 10 4 10 2 0 11 3 20 6 10
4 16 1 16 -9 0 -22 17 -30 24 -11 3 8 2 13 -3 10 -5 -3 -11 1 -15 9 -3 8 -2
15 3 15 8 0 26 66 23 83 -2 8 59 66 70 67 4 0 0 -19 -9 -42z m-10514 -78 c23
-27 38 -50 32 -50 -13 0 -41 30 -64 69 -26 44 -16 38 32 -19z m10425 -14 c-3
-9 -13 -16 -22 -16 -13 0 -12 3 4 19 22 21 27 21 18 -3z m-10370 -95 c-5 -5
-33 30 -34 43 0 4 9 -2 19 -15 11 -13 17 -26 15 -28z m10313 7 c-3 -7 -5 -2
-5 12 0 14 2 19 5 13 2 -7 2 -19 0 -25z m-10297 -53 c0 -5 -5 -3 -10 5 -5 8
-10 20 -10 25 0 6 5 3 10 -5 5 -8 10 -19 10 -25z m55 -100 c14 -25 24 -51 21
-58 -2 -7 -5 -5 -5 4 -1 9 -9 27 -19 40 -18 24 -35 59 -28 59 2 0 16 -20 31
-45z m103 24 c3 -12 2 -12 -6 0 -6 8 -15 10 -22 6 -9 -5 -11 -4 -6 4 10 15 28
10 34 -10z m4610 -45 c-3 -14 -5 -12 -10 9 -3 19 -2 25 4 19 6 -6 8 -18 6 -28z
m-4557 -1 c13 -16 12 -17 -3 -4 -10 7 -18 15 -18 17 0 8 8 3 21 -13z m4596
-65 c-3 -8 -6 -5 -6 6 -1 11 2 17 5 13 3 -3 4 -12 1 -19z m-4703 -13 c4 -16
11 -23 18 -19 7 4 8 3 4 -5 -4 -6 -3 -17 3 -24 12 -16 52 -107 46 -107 -3 0
-25 41 -50 90 -25 50 -41 90 -36 90 5 0 12 -11 15 -25z m190 -1 c3 -8 2 -12
-4 -9 -6 3 -10 10 -10 16 0 14 7 11 14 -7z m4489 -7 c3 -8 -1 -14 -8 -14 -7 0
-11 6 -8 14 3 7 6 13 8 13 2 0 5 -6 8 -13z m50 -82 c4 -26 4 -33 -2 -20 -5 11
-11 40 -15 65 -7 54 8 16 17 -45z m-4479 26 c-3 -3 -15 6 -27 18 l-22 24 27
-19 c14 -10 24 -21 22 -23z m4423 -13 c-3 -8 -6 -5 -6 6 -1 11 2 17 5 13 3 -3
4 -12 1 -19z m-4392 -18 c10 -11 16 -20 13 -20 -3 0 -13 9 -23 20 -10 11 -16
20 -13 20 3 0 13 -9 23 -20z m4462 -72 c-3 -7 -5 -2 -5 12 0 14 2 19 5 13 2
-7 2 -19 0 -25z m4992 -37 c-16 -29 -38 -34 -54 -13 -8 10 -16 7 -35 -15 l-25
-28 28 24 c15 14 27 20 27 14 0 -5 -3 -13 -7 -17 -4 -4 -8 -17 -8 -29 0 -17
-7 -23 -28 -25 -20 -2 -27 -8 -23 -17 7 -18 -10 -29 -20 -14 -5 8 -3 9 6 4 9
-5 11 -4 6 4 -4 6 -12 9 -17 5 -5 -3 -7 -9 -4 -14 7 -11 -25 -50 -41 -50 -7 0
-10 -17 -8 -47 3 -34 1 -42 -5 -28 -8 18 -9 19 -16 3 -4 -10 -5 -24 -2 -32 4
-10 -2 -13 -19 -12 -13 0 -24 7 -24 14 0 7 -5 10 -11 6 -6 -3 -8 -17 -5 -29 4
-14 0 -29 -9 -39 -19 -19 -19 -30 1 -22 9 3 12 2 9 -5 -4 -6 -13 -8 -21 -5 -8
3 -19 -4 -25 -17 -7 -12 -18 -27 -25 -35 -7 -7 -11 -19 -7 -27 3 -10 1 -13 -9
-10 -9 4 -29 -7 -47 -25 -18 -16 -28 -30 -22 -30 6 0 11 -5 11 -11 0 -6 -7 -9
-15 -5 -13 4 -13 2 -5 -14 13 -24 14 -62 1 -41 -7 10 -12 8 -25 -10 -14 -20
-18 -22 -27 -9 -7 11 -8 8 -4 -11 5 -19 2 -28 -10 -33 -12 -4 -15 -13 -12 -27
4 -15 2 -19 -9 -15 -12 5 -12 1 0 -29 16 -37 4 -49 -22 -23 -18 18 -40 -6 -24
-25 15 -18 11 -109 -5 -115 -7 -2 -13 3 -13 12 0 9 5 16 11 16 5 0 7 5 3 12
-6 9 -9 9 -12 0 -7 -21 -20 -13 -16 11 3 12 -3 2 -13 -23 -10 -25 -28 -49 -41
-55 -16 -7 -20 -15 -16 -30 4 -17 3 -18 -6 -5 -10 12 -11 11 -7 -7 3 -13 1
-23 -4 -23 -5 0 -9 -7 -9 -15 0 -8 -6 -15 -13 -15 -7 0 -13 -9 -14 -20 -2 -26
2 -25 35 5 17 16 30 21 36 15 15 -15 36 -12 36 5 0 8 9 19 21 25 12 7 18 18
15 26 -5 12 -2 12 15 3 17 -9 20 -8 14 2 -6 8 -4 11 6 7 17 -7 23 41 7 60 -20
23 -3 18 22 -7 14 -13 19 -21 12 -16 -11 6 -12 3 -3 -12 7 -14 7 -24 -2 -33
-10 -12 -9 -12 5 -1 10 7 14 19 11 28 -5 13 -2 15 13 9 16 -6 15 -4 -4 17 -17
18 -20 27 -11 32 7 5 10 4 6 -2 -4 -6 4 -10 18 -10 14 0 22 3 19 8 -7 12 3 11
26 -1 16 -8 18 -7 14 4 -3 8 -2 21 3 28 4 7 8 22 8 33 0 11 7 20 15 21 9 0 10
-1 3 -3 -13 -4 -18 -23 -7 -23 23 0 137 87 130 99 -3 4 5 8 16 8 15 2 18 -1
10 -9 -6 -6 -8 -16 -6 -22 7 -19 -309 -281 -446 -369 -36 -23 -93 -61 -127
-84 -68 -46 -86 -53 -60 -25 8 9 32 53 53 97 57 122 136 255 147 248 6 -3 7
-2 4 3 -7 13 89 170 102 167 11 -3 51 44 51 61 0 6 -10 -4 -21 -22 -12 -18
-24 -31 -26 -28 -3 3 28 51 68 107 41 56 98 137 128 180 30 44 56 77 58 75 3
-2 -3 -17 -13 -33 l-18 -28 23 20 c14 12 20 26 17 39 -3 13 15 45 57 100 68
90 152 191 206 248 34 37 35 37 49 16 14 -19 14 -24 1 -47z m-9376 13 c-3 -8
-7 -14 -10 -14 -3 0 -3 6 0 14 3 7 0 20 -6 27 -10 11 -9 11 5 0 9 -7 14 -19
11 -27z m4052 -32 c-8 -8 -25 17 -25 38 0 9 6 6 16 -8 9 -13 13 -26 9 -30z
m342 6 c-3 -7 -5 -2 -5 12 0 14 2 19 5 13 2 -7 2 -19 0 -25z m-4633 -11 c8
-31 2 -30 -18 3 -13 24 -14 29 -2 24 8 -3 17 -15 20 -27z m36 -9 c-1 -16 -30
-56 -30 -41 0 7 5 15 11 18 6 4 8 13 5 21 -3 8 -1 14 4 14 6 0 10 -6 10 -12z
m320 -81 c0 -5 -10 4 -23 20 -43 53 -50 68 -13 28 20 -22 36 -44 36 -48z
m9210 73 c0 -5 -5 -10 -11 -10 -5 0 -7 5 -4 10 3 6 8 10 11 10 2 0 4 -4 4 -10z
m-9528 -52 c-8 -8 -9 -4 -5 13 4 13 8 18 11 10 2 -7 -1 -18 -6 -23z m13 -18
c-3 -5 6 -27 20 -47 14 -21 25 -32 25 -25 0 7 5 10 10 7 6 -3 10 -11 10 -16 0
-6 -4 -7 -10 -4 -5 3 -10 0 -10 -7 0 -7 -14 9 -30 35 -27 41 -32 67 -14 67 3
0 2 -4 -1 -10z m380 -80 l20 -25 -22 19 c-13 11 -23 24 -23 29 0 6 1 8 3 6 1
-2 11 -15 22 -29z m-311 -28 c3 -5 -1 -9 -9 -9 -8 0 -12 4 -9 9 3 4 7 8 9 8 2
0 6 -4 9 -8z m16 -37 c0 -8 -4 -15 -10 -15 -5 0 -7 7 -4 15 4 8 8 15 10 15 2
0 4 -7 4 -15z m9530 -30 c0 -2 -9 -9 -20 -15 -12 -6 -20 -7 -20 -1 0 5 8 12
18 14 9 3 18 5 20 6 1 0 2 -1 2 -4z m-9500 -22 c0 -7 -4 -13 -9 -13 -5 0 -11
6 -14 13 -3 8 1 14 9 14 8 0 14 -6 14 -14z m45 -13 c3 -5 1 -10 -4 -10 -6 0
-11 5 -11 10 0 6 2 10 4 10 3 0 8 -4 11 -10z m-25 -26 c0 6 6 1 14 -9 8 -11
12 -23 9 -28 -3 -4 7 -20 21 -34 30 -30 36 -55 6 -28 -21 19 -70 98 -70 112 0
4 5 1 10 -7 5 -8 10 -11 10 -6z m381 -10 c23 -25 23 -26 2 -13 -13 7 -25 19
-27 26 -8 19 -2 16 25 -13z m9027 -39 c-3 -3 -9 2 -12 12 -6 14 -5 15 5 6 7
-7 10 -15 7 -18z m-8987 -12 c13 -16 12 -17 -3 -4 -10 7 -18 15 -18 17 0 8 8
3 21 -13z m28 -36 c8 -10 7 -14 -2 -14 -8 0 -14 6 -14 14 0 7 1 13 2 13 2 0 8
-6 14 -13z m-334 -70 c14 -21 22 -43 19 -49 -9 -15 -43 32 -37 49 3 8 1 13 -5
11 -10 -3 -12 1 -12 24 0 14 3 11 35 -35z m350 17 c0 -12 -4 -26 -9 -31 -5 -4
-6 -3 -2 4 4 7 2 21 -3 31 -7 14 -6 19 2 19 7 0 13 -10 12 -23z m8585 16 c0
-5 -5 -10 -11 -10 -5 0 -7 5 -4 10 3 6 8 10 11 10 2 0 4 -4 4 -10z m-16 -36
c5 -14 4 -15 -9 -4 -17 14 -19 20 -6 20 5 0 12 -7 15 -16z m-8845 -37 c0 -9
-2 -8 -6 1 -3 8 -11 5 -24 -10 l-20 -23 17 27 c16 27 35 29 33 5z m370 -51
c-3 -3 -11 5 -18 17 -13 21 -12 21 5 5 10 -10 16 -20 13 -22z m-379 0 c10 -13
10 -17 3 -12 -28 16 -11 -12 32 -54 26 -25 43 -50 40 -58 -3 -8 3 -16 15 -19
12 -3 19 -10 17 -16 -2 -6 3 -19 12 -28 13 -17 15 -17 27 -1 10 14 11 11 8
-16 -3 -23 0 -31 8 -26 6 4 8 3 5 -3 -8 -13 18 -37 31 -29 6 3 16 -2 23 -12
13 -16 12 -16 -5 -2 -17 13 -18 13 -15 -5 3 -11 11 -20 19 -20 14 0 32 -19 36
-37 1 -5 2 -11 3 -15 1 -5 5 -2 10 6 6 9 9 5 9 -14 l0 -28 -37 41 c-57 64
-176 211 -226 278 -29 40 -43 68 -39 78 4 9 7 16 8 14 1 -2 8 -12 16 -22z
m482 -143 c81 -119 163 -261 155 -269 -2 -3 -10 9 -17 26 -7 16 -16 30 -21 30
-5 0 -9 7 -9 16 0 9 -5 12 -12 8 -7 -4 -8 -3 -4 5 4 6 -2 24 -13 40 -12 16
-21 32 -21 36 0 18 -62 93 -76 91 -9 0 -19 6 -21 14 -4 13 -3 13 6 0 18 -26
23 -3 6 24 -18 26 -35 34 -35 16 0 -5 5 -10 11 -10 5 0 7 -5 3 -11 -5 -8 -10
-6 -16 5 -6 11 -6 22 1 30 6 7 8 16 4 19 -3 4 -3 7 0 7 4 0 30 -35 59 -77z
m5268 7 c0 -5 -5 -10 -11 -10 -5 0 -7 5 -4 10 3 6 8 10 11 10 2 0 4 -4 4 -10z
m-5235 -96 c9 -15 12 -23 6 -20 -11 7 -35 46 -28 46 3 0 12 -12 22 -26z m5099
1 c3 -8 0 -14 -7 -12 -7 1 -11 -4 -9 -12 1 -7 -2 -19 -9 -27 -6 -7 -8 -19 -4
-26 4 -7 0 -4 -9 6 -8 10 -12 24 -8 30 20 32 37 56 38 56 1 0 4 -7 8 -15z
m-4199 -145 c50 -20 153 -64 230 -97 77 -33 154 -65 170 -71 17 -6 25 -11 18
-11 -6 -1 -43 10 -81 24 -88 32 -109 32 -52 1 45 -25 68 -36 170 -84 30 -14
60 -31 67 -37 6 -7 25 -18 42 -25 17 -7 31 -16 31 -20 0 -4 13 -10 29 -13 16
-3 35 -13 43 -21 9 -8 40 -22 69 -32 30 -9 63 -23 74 -31 11 -7 38 -18 60 -24
22 -6 54 -17 70 -24 36 -17 261 -95 293 -102 12 -3 22 -9 22 -14 0 -5 14 -9
30 -9 17 0 30 -4 30 -9 0 -5 17 -12 37 -16 21 -4 57 -18 80 -32 24 -14 43 -21
43 -16 0 4 5 0 11 -9 5 -10 19 -18 30 -18 11 0 22 -7 26 -16 4 -12 8 -13 13
-3 6 9 12 8 25 -4 9 -10 27 -17 39 -17 13 0 40 -13 61 -30 21 -16 43 -30 49
-30 15 -1 66 -46 66 -60 0 -5 4 -10 10 -10 15 0 50 -42 44 -52 -3 -5 4 -12 15
-15 12 -3 20 -11 19 -18 -2 -7 11 -25 27 -39 l30 -26 -35 5 c-33 5 -33 5 -10
-6 14 -6 20 -13 14 -16 -7 -2 -52 15 -100 37 -49 23 -106 48 -127 56 -32 11
-153 66 -322 144 -101 47 -209 90 -218 87 -6 -2 28 -21 74 -43 206 -96 610
-305 639 -330 8 -7 18 -13 23 -13 12 -1 67 -31 67 -37 0 -2 -9 0 -20 6 -18 9
-23 7 -22 -10 0 -3 -11 -6 -24 -6 -32 -2 -34 -4 -41 -49 -4 -26 -2 -40 8 -45
10 -7 11 -13 1 -32 -21 -43 -19 -52 18 -60 27 -5 23 -6 -17 -3 -29 2 -54 1
-57 -3 -4 -6 14 -10 66 -12 22 -2 32 -16 17 -26 -8 -5 -9 -3 -4 6 5 9 2 10
-14 5 -48 -15 -328 85 -561 201 -348 172 -588 336 -900 615 -204 183 -630 611
-630 633 0 3 33 -9 73 -26 39 -16 113 -47 162 -68z m7235 70 c0 -5 -5 -10 -11
-10 -5 0 -7 5 -4 10 3 6 8 10 11 10 2 0 4 -4 4 -10z m-3149 -62 c-11 -11 -19
-24 -16 -27 2 -4 1 -11 -3 -16 -11 -16 -52 -49 -52 -42 0 3 10 16 23 27 12 12
22 24 22 28 1 15 26 52 36 52 5 0 1 -10 -10 -22z m-5195 -24 c-3 -7 0 -16 6
-20 7 -5 8 -2 3 6 -5 9 -4 11 4 6 6 -4 9 -11 6 -15 -5 -10 70 -82 79 -75 3 2
4 1 2 -2 -10 -13 49 -65 67 -60 11 2 16 2 13 -1 -3 -4 -1 -12 5 -20 6 -7 8
-13 3 -13 -5 0 -2 -4 6 -10 8 -5 11 -12 7 -17 -4 -4 -57 42 -118 103 -81 81
-108 114 -103 127 3 9 10 14 16 11 5 -3 7 -12 4 -20z m2461 -10 c-3 -3 -12 -4
-19 -1 -8 3 -5 6 6 6 11 1 17 -2 13 -5z m-2067 -123 c0 -3 -7 4 -15 15 -18 23
-19 14 -3 -21 8 -17 14 -22 19 -14 11 18 131 -233 123 -257 -4 -13 -3 -15 3
-6 7 9 20 -10 47 -69 21 -44 36 -82 34 -84 -2 -1 -68 52 -147 118 -100 84
-139 122 -130 128 15 9 32 2 24 -11 -3 -4 4 -6 15 -3 11 3 20 0 20 -6 0 -6 7
-11 15 -11 8 0 15 -4 15 -10 0 -5 7 -7 15 -4 8 4 15 11 15 16 0 6 -7 8 -15 5
-8 -4 -17 -2 -20 3 -4 6 3 10 15 10 18 0 19 3 9 21 -6 12 -9 40 -6 63 4 25 3
33 -2 21 -8 -19 -8 -19 -19 2 -7 12 -12 29 -12 37 0 14 -11 20 -31 18 -4 -1
-4 8 -1 20 3 12 1 19 -4 15 -5 -3 -9 18 -10 49 l0 53 23 -47 c13 -26 23 -49
23 -51z m2236 52 c-6 -6 -36 9 -36 18 0 5 9 4 20 -3 10 -7 18 -14 16 -15z
m3279 -3 c3 -5 1 -10 -4 -10 -6 0 -11 5 -11 10 0 6 2 10 4 10 3 0 8 -4 11 -10z
m-360 -31 c-4 -5 -12 -9 -18 -8 -9 0 -8 2 1 6 6 2 9 10 6 15 -4 7 -2 8 5 4 6
-4 9 -12 6 -17z m230 1 c-3 -5 -12 -10 -18 -10 -7 0 -6 4 3 10 19 12 23 12 15
0z m-5628 -15 c8 -9 13 -18 11 -21 -3 -2 -13 5 -23 16 -21 23 -11 27 12 5z
m5383 -9 c0 -3 -4 -8 -10 -11 -5 -3 -10 -1 -10 4 0 6 5 11 10 11 6 0 10 -2 10
-4z m-3155 -26 c-3 -5 -13 -10 -21 -10 -8 0 -14 5 -14 10 0 6 9 10 21 10 11 0
17 -4 14 -10z m3115 6 c0 -3 -4 -8 -10 -11 -5 -3 -10 -1 -10 4 0 6 5 11 10 11
6 0 10 -2 10 -4z m-3866 -35 c4 -5 -3 -7 -14 -4 -23 6 -26 13 -6 13 8 0 17 -4
20 -9z m783 3 c-3 -3 -12 -4 -19 -1 -8 3 -5 6 6 6 11 1 17 -2 13 -5z m-2170
-25 c6 -6 9 -19 6 -28 -4 -9 -3 -13 2 -9 4 4 17 2 29 -5 11 -6 30 -12 40 -12
11 0 21 -5 23 -11 4 -12 -22 -44 -35 -44 -9 0 -102 88 -102 96 0 3 7 4 15 0 8
-3 15 -1 15 3 0 5 -6 12 -12 14 -7 3 -8 6 -2 6 5 1 15 -4 21 -10z m5850 -75
c-3 -3 -12 -4 -19 -1 -8 3 -5 6 6 6 11 1 17 -2 13 -5z m48 -4 c-27 -12 -43
-12 -25 0 8 5 22 9 30 9 10 0 8 -3 -5 -9z m-218 -56 c-3 -3 -12 -4 -19 -1 -8
3 -5 6 6 6 11 1 17 -2 13 -5z m1228 -94 c61 -5 130 -10 155 -11 25 -1 49 -4
53 -6 23 -13 -717 -440 -966 -558 -280 -132 -645 -276 -775 -306 -23 -5 -54
-6 -69 -3 l-26 7 24 13 c13 7 32 13 41 14 16 0 17 9 12 78 -2 42 -5 87 -4 100
0 17 -8 26 -30 34 -34 11 -31 28 6 28 13 0 24 4 24 8 0 5 42 25 93 45 197 77
537 202 647 238 63 21 108 38 100 38 -19 1 -136 -32 -335 -94 -82 -25 -170
-52 -195 -60 -25 -7 -85 -25 -135 -40 -122 -36 -340 -118 -451 -170 -132 -61
-310 -180 -408 -272 -18 -17 -18 -17 -7 5 7 12 9 27 6 32 -7 11 14 25 40 25
26 1 47 14 39 26 -3 5 -2 9 3 8 22 -4 25 2 7 17 -18 15 -18 15 3 5 12 -6 24
-11 27 -11 9 0 2 24 -9 33 -5 5 0 6 12 2 12 -3 24 -1 27 4 4 6 13 8 21 4 20
-7 19 7 -2 24 -10 8 -12 12 -6 8 7 -3 23 1 35 9 25 18 42 21 33 6 -9 -15 4
-12 21 5 14 13 12 15 -18 11 -18 -3 -40 -6 -48 -9 -8 -2 -11 -2 -6 1 4 2 3 8
-4 12 -7 4 7 6 29 5 32 -2 44 2 52 16 14 27 48 44 62 30 6 -6 16 -11 22 -11 5
0 2 5 -9 11 -15 9 -16 13 -5 20 19 12 32 11 24 -1 -4 -6 1 -7 11 -3 15 5 15 7
0 15 -13 7 -16 26 -16 88 0 69 -2 80 -17 80 -15 0 -14 3 5 18 13 10 20 21 16
25 -11 11 -42 8 -50 -5 -4 -7 -3 -8 4 -4 7 4 12 3 12 -2 0 -11 -52 -35 -66
-30 -11 3 -67 -52 -60 -59 2 -2 15 1 28 7 l23 12 -23 -23 c-15 -16 -25 -20
-30 -13 -11 17 -45 25 -62 13 -13 -9 -13 -10 0 -8 36 4 42 -1 25 -17 -15 -15
-17 -15 -30 2 -13 18 -14 18 -15 2 0 -10 -4 -18 -9 -18 -5 0 -11 -9 -14 -20
-3 -11 -10 -19 -16 -18 -6 2 -26 -15 -45 -36 -26 -29 -33 -43 -25 -52 8 -9 5
-11 -10 -7 -13 3 -21 1 -21 -6 0 -7 4 -10 8 -7 4 2 8 -4 8 -15 0 -19 -1 -19
-13 -3 -12 16 -13 16 -13 1 0 -9 -4 -17 -9 -17 -5 0 -8 -8 -7 -17 0 -10 -6
-18 -14 -18 -8 -1 -14 -7 -12 -14 1 -7 -2 -10 -8 -6 -6 3 -7 12 -3 18 13 22
107 152 118 163 6 7 22 25 36 40 76 90 252 212 419 292 328 157 634 226 1215
275 92 8 448 6 550 -3z m-3665 -160 c8 -5 11 -10 5 -10 -5 0 -17 5 -25 10 -8
5 -10 10 -5 10 6 0 17 -5 25 -10z m1143 -275 c-3 -9 -8 -14 -10 -11 -3 3 -2 9
2 15 9 16 15 13 8 -4z m77 -61 c0 -8 -19 -13 -24 -6 -3 5 1 9 9 9 8 0 15 -2
15 -3z m-119 -27 c-10 -9 -11 -8 -5 6 3 10 9 15 12 12 3 -3 0 -11 -7 -18z
m636 -13 c-3 -3 -12 -4 -19 -1 -8 3 -5 6 6 6 11 1 17 -2 13 -5z m3 -44 c0 -16
5 -30 12 -30 6 0 9 -3 5 -6 -3 -3 -15 -3 -26 1 -26 8 -31 65 -6 65 10 0 15
-10 15 -30z m-560 12 c0 -5 -7 -17 -15 -28 -14 -18 -14 -17 -4 9 12 27 19 34
19 19z m-100 -62 c-7 -12 -10 -31 -7 -41 5 -20 -7 -26 -18 -9 -6 10 24 84 32
76 3 -2 -1 -14 -7 -26z m380 -24 c0 -3 -4 -8 -10 -11 -5 -3 -10 -1 -10 4 0 6
5 11 10 11 6 0 10 -2 10 -4z m-56 -102 c3 -8 2 -12 -4 -9 -6 3 -10 10 -10 16
0 14 7 11 14 -7z m-94 -54 c-6 -11 -13 -20 -16 -20 -2 0 0 9 6 20 6 11 13 20
16 20 2 0 0 -9 -6 -20z m-34 -69 c-9 -10 -16 -25 -16 -34 0 -9 -4 -17 -9 -17
-5 0 -16 -17 -24 -37 -9 -21 -16 -32 -16 -25 -1 21 72 158 77 144 2 -7 -3 -21
-12 -31z m777 -18 c-7 -2 -21 -2 -30 0 -10 3 -4 5 12 5 17 0 24 -2 18 -5z
m-677 -82 c-1 -3 -20 -35 -41 -70 -21 -35 -58 -107 -82 -160 -23 -53 -43 -91
-43 -85 0 13 38 102 80 187 16 32 27 66 24 75 -5 13 -4 14 4 3 8 -11 13 -9 27
12 9 14 14 30 11 35 -3 5 1 9 9 9 8 0 13 -3 11 -6z m-179 -73 c-3 -8 -6 -5 -6
6 -1 11 2 17 5 13 3 -3 4 -12 1 -19z m-20 -50 c-3 -8 -6 -5 -6 6 -1 11 2 17 5
13 3 -3 4 -12 1 -19z m-10 -40 c-3 -8 -6 -5 -6 6 -1 11 2 17 5 13 3 -3 4 -12
1 -19z m-20 -70 c-3 -8 -6 -5 -6 6 -1 11 2 17 5 13 3 -3 4 -12 1 -19z m-23
-114 c3 -8 2 -12 -4 -9 -6 3 -10 10 -10 16 0 14 7 11 14 -7z m73 -46 c-3 -8
-6 -5 -6 6 -1 11 2 17 5 13 3 -3 4 -12 1 -19z m-10 -40 c-3 -8 -6 -5 -6 6 -1
11 2 17 5 13 3 -3 4 -12 1 -19z m948 -28 c-16 -16 -33 -30 -39 -30 -9 0 53 59
63 60 3 0 -8 -13 -24 -30z m-2845 -175 c0 -2 -9 -3 -19 -2 -11 0 -18 5 -15 9
4 6 34 0 34 -7z m2740 1 c0 -2 -7 -7 -16 -10 -8 -3 -12 -2 -9 4 6 10 25 14 25
6z m-2622 -13 c-10 -2 -26 -2 -35 0 -10 3 -2 5 17 5 19 0 27 -2 18 -5z m517
-41 c-3 -3 -11 0 -18 7 -9 10 -8 11 6 5 10 -3 15 -9 12 -12z m2101 3 c-21 -7
-46 -10 -55 -7 -11 5 -6 9 19 13 61 11 76 9 36 -6z m-4395 -136 c17 -23 17
-30 -1 -159 -11 -74 -18 -136 -16 -138 2 -1 27 11 55 28 29 16 54 30 56 30 2
0 27 14 55 30 50 30 52 30 86 14 19 -9 34 -22 34 -28 0 -7 -53 -42 -117 -78
-163 -92 -198 -108 -229 -108 l-27 0 6 90 c9 117 37 310 49 333 12 22 26 18
49 -14z m1842 24 c-18 -2 -48 -2 -65 0 -18 2 -4 4 32 4 36 0 50 -2 33 -4z
m2820 0 c-7 -2 -19 -2 -25 0 -7 3 -2 5 12 5 14 0 19 -2 13 -5z m-3543 -13 c8
-5 11 -10 5 -10 -5 0 -17 5 -25 10 -8 5 -10 10 -5 10 6 0 17 -5 25 -10z m510
0 c-14 -4 -34 -8 -45 -8 -16 0 -15 2 5 8 14 4 34 8 45 8 16 0 15 -2 -5 -8z
m3077 4 c-3 -3 -12 -4 -19 -1 -8 3 -5 6 6 6 11 1 17 -2 13 -5z m60 -10 c-3 -3
-12 -4 -19 -1 -8 3 -5 6 6 6 11 1 17 -2 13 -5z m-3552 -36 c59 -29 81 -48 56
-48 -5 0 -17 -3 -27 -7 -12 -4 -15 -3 -10 5 4 8 0 12 -11 12 -11 0 -28 7 -39
15 -18 14 -17 14 9 5 53 -19 52 -10 0 16 -29 13 -53 27 -53 29 0 9 9 5 75 -27z
m1048 5 c-7 -2 -19 -2 -25 0 -7 3 -2 5 12 5 14 0 19 -2 13 -5z m-573 -33 c13
-9 13 -10 0 -10 -8 0 -22 5 -30 10 -13 9 -13 10 0 10 8 0 22 -5 30 -10z m400
0 c-34 -11 -60 -11 -35 0 11 5 29 8 40 8 16 0 15 -2 -5 -8z m-1015 -30 c3 -6
-1 -7 -9 -4 -18 7 -21 14 -7 14 6 0 13 -4 16 -10z m289 -17 c30 -15 52 -31 49
-36 -3 -5 0 -7 8 -5 17 7 110 -42 104 -53 -5 -7 43 -22 61 -18 22 4 45 -2 40
-10 -4 -5 20 -7 56 -4 56 4 61 3 45 -10 -23 -19 -100 -32 -105 -17 -5 14 -29
13 -34 -2 -3 -7 -9 -8 -19 -3 -8 5 -28 10 -45 11 -16 1 -47 9 -68 18 -42 17
-66 20 -66 8 0 -4 42 -22 93 -39 98 -34 102 -39 18 -23 -59 11 -272 100 -266
111 3 4 -1 6 -8 6 -26 -1 -76 28 -81 47 -4 18 -3 19 7 5 16 -21 46 -33 82 -34
23 0 29 -4 27 -17 -2 -10 2 -18 8 -18 5 0 10 5 10 10 0 6 5 10 11 10 8 0 7 -5
-1 -15 -11 -13 -10 -15 1 -11 8 2 28 7 44 11 29 6 29 6 10 -9 -20 -15 -20 -15
3 -9 18 4 21 2 16 -11 -9 -23 10 -20 32 6 17 19 17 21 2 15 -10 -3 -21 0 -25
7 -5 7 -15 16 -23 19 -11 4 -10 6 4 6 14 1 11 6 -15 24 -19 13 -42 26 -52 30
-20 8 -14 27 8 27 8 0 39 -12 69 -27z m4916 -57 c14 -26 13 -29 -4 -40 -73
-44 -141 -95 -141 -106 0 -7 7 -17 16 -23 13 -8 31 0 84 37 61 43 95 52 95 27
0 -5 -34 -30 -75 -55 l-74 -47 17 -37 c29 -65 31 -66 76 -29 22 18 71 54 108
79 l66 46 22 -23 22 -24 -33 -31 c-42 -40 -227 -190 -234 -190 -2 0 -11 13
-19 28 -8 16 -54 77 -101 137 -47 59 -84 114 -81 121 12 30 209 167 231 161 6
-2 17 -16 25 -31z m-1553 18 c-3 -3 -12 -4 -19 -1 -8 3 -5 6 6 6 11 1 17 -2
13 -5z m-2920 -10 c-3 -3 -12 -4 -19 -1 -8 3 -5 6 6 6 11 1 17 -2 13 -5z
m3228 -4 c-3 -5 -11 -10 -16 -10 -6 0 -7 5 -4 10 3 6 11 10 16 10 6 0 7 -4 4
-10z m-3705 -4 c0 -3 -4 -8 -10 -11 -5 -3 -10 -1 -10 4 0 6 5 11 10 11 6 0 10
-2 10 -4z m3643 -13 c-7 -2 -19 -2 -25 0 -7 3 -2 5 12 5 14 0 19 -2 13 -5z
m-2770 -20 c-7 -2 -21 -2 -30 0 -10 3 -4 5 12 5 17 0 24 -2 18 -5z m-90 -10
c-7 -2 -21 -2 -30 0 -10 3 -4 5 12 5 17 0 24 -2 18 -5z m-80 -10 c-7 -2 -19
-2 -25 0 -7 3 -2 5 12 5 14 0 19 -2 13 -5z m80 -80 c-7 -2 -21 -2 -30 0 -10 3
-4 5 12 5 17 0 24 -2 18 -5z m-413 -23 c-11 -7 -8 -10 15 -11 24 0 26 -2 11
-8 -16 -6 -153 13 -163 23 -2 2 31 4 74 4 53 1 73 -2 63 -8z m-1112 -97 l33
-28 -38 -51 c-21 -28 -71 -99 -111 -158 -74 -108 -92 -121 -115 -84 -9 13 2
37 53 120 35 57 78 131 94 165 17 34 36 62 41 62 6 1 25 -11 43 -26z m5230
-65 c26 -26 11 -44 -73 -87 -47 -24 -85 -47 -85 -51 0 -3 6 -14 13 -24 12 -17
18 -16 89 20 64 32 79 36 92 25 22 -19 14 -27 -75 -72 l-80 -40 22 -38 21 -39
92 44 c80 38 93 42 111 30 40 -27 29 -41 -94 -114 -67 -40 -125 -72 -130 -72
-5 0 -13 10 -16 23 -4 12 -36 74 -71 138 -35 63 -65 126 -66 140 -3 21 9 30
100 76 107 55 130 61 150 41z m-4927 -120 c105 -35 183 -120 183 -199 0 -87
-86 -189 -160 -189 -55 0 -158 37 -187 68 -32 33 -31 37 23 127 21 33 50 93
65 133 16 39 32 72 35 72 4 0 22 -5 41 -12z m4473 -125 c9 -29 12 -361 3 -369
-16 -17 -102 43 -199 138 -102 99 -117 129 -70 136 28 4 111 -57 166 -123 21
-25 40 -45 42 -42 2 2 -3 57 -12 121 -8 65 -14 119 -12 120 56 41 74 45 82 19z
m-1956 -140 c-10 -2 -26 -2 -35 0 -10 3 -2 5 17 5 19 0 27 -2 18 -5z m-120
-10 c-10 -2 -26 -2 -35 0 -10 3 -2 5 17 5 19 0 27 -2 18 -5z m-1833 -25 c6
-17 55 -354 55 -379 0 -21 -29 -26 -61 -8 -13 7 -19 18 -17 36 3 26 -1 28 -72
44 -41 10 -104 20 -139 23 -72 6 -93 18 -71 40 83 79 284 256 291 256 6 0 12
-6 14 -12z m3377 -85 c26 -57 108 -277 108 -289 0 -2 -18 -4 -39 -4 -32 0 -41
4 -46 23 -4 12 -32 87 -63 166 -53 137 -54 145 -37 157 33 24 46 15 77 -53z
m-404 -88 c3 -28 0 -31 -46 -42 -26 -6 -64 -18 -84 -26 -34 -14 -36 -18 -29
-44 4 -15 14 -27 22 -26 8 1 42 7 77 13 73 14 95 9 90 -22 -3 -22 -36 -34
-140 -52 -36 -7 -37 -7 -26 -39 5 -18 11 -37 13 -44 3 -9 29 -3 91 17 48 17
90 30 94 30 10 0 44 -70 37 -76 -13 -13 -211 -64 -248 -64 -37 0 -38 1 -47 48
-55 261 -65 313 -61 317 10 9 185 43 219 41 31 -1 35 -4 38 -31z m-2389 -1
c10 -9 -55 -352 -70 -370 -9 -11 -59 -7 -59 5 0 3 16 91 37 194 l37 188 25 -6
c14 -4 28 -8 30 -11z m474 -100 l48 -6 -7 -36 c-4 -21 -7 -38 -8 -38 0 -1 -35
2 -76 7 -41 5 -75 7 -76 6 0 -1 -4 -16 -7 -34 l-6 -31 67 -7 c96 -9 95 -9 87
-53 -9 -47 -9 -48 -40 -28 -14 9 -48 20 -75 23 l-50 6 0 -41 c0 -35 4 -42 23
-46 12 -3 47 -10 77 -16 60 -12 69 -20 62 -56 -5 -28 -14 -29 -129 -14 -126
17 -123 15 -123 58 0 20 7 78 15 127 8 50 15 114 15 144 l0 53 78 -6 c42 -4
98 -9 125 -12z m1298 -16 c25 -26 49 -79 49 -106 0 -11 -9 -31 -21 -46 -19
-24 -20 -29 -6 -44 23 -25 88 -124 84 -128 -1 -2 -22 -4 -45 -5 -37 -3 -46 1
-67 27 -13 16 -32 44 -42 62 -15 27 -23 32 -56 32 l-39 0 7 -42 c3 -24 9 -58
12 -76 l5 -33 -48 3 -49 3 -11 150 c-6 83 -14 164 -18 182 l-7 32 58 4 c156 9
171 8 194 -15z m-810 -40 c7 -13 43 -98 79 -190 l67 -168 -36 0 c-33 0 -38 4
-46 33 l-10 32 -90 0 c-87 0 -89 -1 -95 -25 -5 -23 -11 -25 -64 -28 -32 -2
-56 1 -55 5 17 38 146 285 162 308 40 59 68 70 88 33z"/>
<path d="M8290 15200 c0 -11 -26 -194 -35 -247 -6 -31 -4 -33 23 -33 36 0 222
46 234 58 9 9 -198 232 -214 232 -4 0 -8 -5 -8 -10z"/>
<path d="M12724 15253 c-3 -10 -24 -63 -46 -118 -23 -55 -49 -123 -59 -152
l-17 -51 38 -16 c66 -26 165 -38 212 -25 76 20 128 105 114 184 -10 52 -74
117 -158 159 -38 20 -72 36 -74 36 -3 0 -7 -8 -10 -17z"/>
<path d="M9591 11754 c0 -11 3 -14 6 -6 3 7 2 16 -1 19 -3 4 -6 -2 -5 -13z"/>
<path d="M9581 11664 c0 -11 3 -14 6 -6 3 7 2 16 -1 19 -3 4 -6 -2 -5 -13z"/>
<path d="M11630 9376 c0 -2 7 -7 16 -10 8 -3 12 -2 9 4 -6 10 -25 14 -25 6z"/>
<path d="M11499 9293 c-13 -16 -12 -17 4 -4 9 7 17 15 17 17 0 8 -8 3 -21 -13z"/>
<path d="M11555 9300 c-4 -6 3 -10 14 -10 25 0 27 6 6 13 -8 4 -17 2 -20 -3z"/>
<path d="M11486 9225 c-16 -12 -17 -15 -4 -15 8 0 21 7 28 15 16 19 1 19 -24
0z"/>
<path d="M11425 9220 c-3 -5 1 -10 10 -10 9 0 13 5 10 10 -3 6 -8 10 -10 10
-2 0 -7 -4 -10 -10z"/>
<path d="M11740 8951 c0 -5 11 -8 25 -8 13 0 22 3 19 8 -3 5 -14 9 -25 9 -10
0 -19 -4 -19 -9z"/>
<path d="M11760 8930 c0 -6 7 -10 15 -10 8 0 15 2 15 4 0 2 -7 6 -15 10 -8 3
-15 1 -15 -4z"/>
<path d="M11786 8905 c-11 -8 -15 -15 -9 -15 6 0 16 7 23 15 16 19 11 19 -14
0z"/>
<path d="M11718 8873 c7 -3 16 -2 19 1 4 3 -2 6 -13 5 -11 0 -14 -3 -6 -6z"/>
<path d="M11994 8857 c3 -10 6 -24 6 -30 0 -8 4 -7 12 1 10 10 8 16 -6 30 -18
16 -19 16 -12 -1z"/>
<path d="M11665 8845 c-25 -12 -26 -14 -5 -9 28 7 60 23 45 23 -5 0 -23 -6
-40 -14z"/>
<path d="M11923 8839 c14 -8 22 -8 30 0 8 8 3 11 -18 11 -26 -1 -28 -2 -12
-11z"/>
<path d="M11610 8820 c-9 -6 -10 -10 -3 -10 6 0 15 5 18 10 8 12 4 12 -15 0z"/>
<path d="M6748 14597 c-45 -21 -228 -171 -228 -186 0 -17 184 -266 328 -446
58 -71 107 -132 108 -134 2 -2 50 43 108 101 119 117 157 182 164 280 12 157
-117 329 -291 387 -78 27 -130 26 -189 -2z"/>
<path d="M13869 14442 c-35 -37 -107 -117 -159 -177 -52 -61 -123 -143 -158
-183 -103 -119 -103 -110 8 -213 103 -96 174 -139 229 -139 83 0 221 97 317
221 97 127 124 243 74 324 -42 69 -213 235 -243 235 -2 0 -33 -30 -68 -68z"/>
<path d="M8918 14033 c7 -3 16 -2 19 1 4 3 -2 6 -13 5 -11 0 -14 -3 -6 -6z"/>
<path d="M8828 14003 c7 -3 16 -2 19 1 4 3 -2 6 -13 5 -11 0 -14 -3 -6 -6z"/>
<path d="M8790 13931 c0 -25 6 -27 13 -6 4 8 2 17 -3 20 -6 4 -10 -3 -10 -14z"/>
<path d="M8525 13870 c-18 -8 -18 -9 -2 -9 10 -1 16 -4 14 -8 -3 -5 13 -9 34
-9 21 -1 36 2 33 7 -3 5 -19 9 -35 9 -18 0 -28 4 -24 10 7 11 7 11 -20 0z"/>
<path d="M8511 13812 c-6 -2 -11 -15 -11 -28 0 -20 5 -24 31 -24 26 0 30 3 26
19 -3 15 1 21 17 23 14 3 9 6 -15 9 -20 3 -42 3 -48 1z"/>
<path d="M8428 13803 c7 -3 16 -2 19 1 4 3 -2 6 -13 5 -11 0 -14 -3 -6 -6z"/>
<path d="M8348 13738 c-19 -19 -13 -24 11 -9 7 5 12 13 10 18 -2 5 -12 1 -21
-9z"/>
<path d="M8560 13645 c0 -21 -5 -36 -12 -36 -7 -1 3 -5 22 -9 34 -7 34 -7 -12
-9 -50 -1 -63 -15 -26 -27 13 -4 24 -2 26 5 2 6 21 11 42 11 48 0 61 15 20 24
-27 5 -30 10 -30 41 0 24 -5 35 -15 35 -10 0 -15 -11 -15 -35z"/>
<path d="M8668 13623 c-3 -13 -2 -26 4 -29 14 -9 16 -2 8 26 -6 25 -6 25 -12
3z"/>
<path d="M8655 13570 c-3 -5 -1 -10 4 -10 6 0 11 5 11 10 0 6 -2 10 -4 10 -3
0 -8 -4 -11 -10z"/>
<path d="M12095 11447 c-34 -58 -234 -324 -316 -422 -305 -359 -615 -777 -778
-1048 -29 -48 -56 -85 -61 -82 -5 3 -12 0 -16 -6 -4 -8 -3 -9 4 -5 7 4 12 5
12 1 0 -14 -93 -164 -99 -160 -4 2 -7 -6 -7 -18 1 -13 -4 -21 -12 -19 -8 1
-11 -2 -8 -7 9 -14 -46 -121 -57 -114 -6 3 -7 1 -3 -5 9 -15 -32 -109 -51
-116 -8 -3 -12 -10 -9 -15 3 -5 -21 -78 -54 -164 -76 -196 -106 -312 -120
-455 -11 -112 -9 -155 5 -90 16 74 101 323 165 483 77 191 135 316 219 473 32
59 79 148 106 197 94 174 327 509 591 850 117 151 285 381 371 510 65 97 146
236 140 241 -2 2 -12 -11 -22 -29z"/>
<path d="M9772 10400 c0 -14 2 -19 5 -12 2 6 2 18 0 25 -3 6 -5 1 -5 -13z"/>
<path d="M9811 10354 c0 -11 3 -14 6 -6 3 7 2 16 -1 19 -3 4 -6 -2 -5 -13z"/>
<path d="M9761 10334 c0 -11 3 -14 6 -6 3 7 2 16 -1 19 -3 4 -6 -2 -5 -13z"/>
<path d="M9781 10334 c0 -11 3 -14 6 -6 3 7 2 16 -1 19 -3 4 -6 -2 -5 -13z"/>
<path d="M10596 10163 c-6 -14 -5 -15 5 -6 7 7 10 15 7 18 -3 3 -9 -2 -12 -12z"/>
<path d="M10616 10138 c-3 -13 -5 -32 -5 -43 1 -11 5 -2 10 19 10 42 6 62 -5
24z"/>
<path d="M10581 10114 c0 -11 3 -14 6 -6 3 7 2 16 -1 19 -3 4 -6 -2 -5 -13z"/>
<path d="M10975 10069 c-4 -6 -5 -12 -2 -15 2 -3 7 2 10 11 7 17 1 20 -8 4z"/>
<path d="M10585 10010 c-3 -5 1 -10 9 -10 9 0 16 5 16 10 0 6 -4 10 -9 10 -6
0 -13 -4 -16 -10z"/>
<path d="M9500 9985 c0 -5 5 -17 10 -25 5 -8 10 -10 10 -5 0 6 -5 17 -10 25
-5 8 -10 11 -10 5z"/>
<path d="M10889 9903 c-5 -25 -4 -61 0 -57 7 6 11 64 5 64 -2 0 -5 -3 -5 -7z"/>
<path d="M9541 9866 c7 -15 15 -23 17 -16 3 7 -3 19 -13 28 -15 16 -16 15 -4
-12z"/>
<path d="M10522 9850 c0 -14 2 -19 5 -12 2 6 2 18 0 25 -3 6 -5 1 -5 -13z"/>
<path d="M10548 9840 c2 -8 5 -49 7 -90 1 -41 1 -67 -2 -58 -3 14 -7 15 -17 5
-10 -8 -11 -21 -4 -44 5 -18 6 -38 3 -43 -3 -6 -2 -10 4 -10 5 0 12 12 14 28
l4 27 2 -27 c0 -18 7 -28 16 -28 13 0 15 20 15 120 0 112 -1 120 -19 120 -11
0 -21 3 -24 8 -2 4 -2 0 1 -8z"/>
<path d="M10512 9780 c0 -14 2 -19 5 -12 2 6 2 18 0 25 -3 6 -5 1 -5 -13z"/>
<path d="M10531 9753 c0 -25 1 -26 9 -8 12 27 12 35 0 35 -5 0 -10 -12 -9 -27z"/>
<path d="M10643 9720 c0 -25 2 -35 4 -22 2 12 2 32 0 45 -2 12 -4 2 -4 -23z"/>
<path d="M10761 9744 c0 -11 3 -14 6 -6 3 7 2 16 -1 19 -3 4 -6 -2 -5 -13z"/>
<path d="M10840 9749 c0 -5 5 -7 10 -4 6 3 10 8 10 11 0 2 -4 4 -10 4 -5 0
-10 -5 -10 -11z"/>
<path d="M10512 9720 c0 -14 2 -19 5 -12 2 6 2 18 0 25 -3 6 -5 1 -5 -13z"/>
<path d="M10712 9705 c0 -16 2 -22 5 -12 2 9 2 23 0 30 -3 6 -5 -1 -5 -18z"/>
<path d="M10726 9664 c-3 -8 -3 -27 0 -40 l6 -25 14 26 c13 25 10 55 -6 55 -4
0 -11 -7 -14 -16z m24 -13 c0 -6 -4 -13 -10 -16 -5 -3 -10 1 -10 9 0 9 5 16
10 16 6 0 10 -4 10 -9z"/>
<path d="M10756 9603 c-6 -14 -5 -15 5 -6 7 7 10 15 7 18 -3 3 -9 -2 -12 -12z"/>
<path d="M10650 9596 c0 -3 7 -12 16 -21 14 -13 19 -14 25 -3 14 22 10 28 -16
28 -14 0 -25 -2 -25 -4z"/>
<path d="M10518 9495 c2 -14 8 -25 12 -25 4 0 10 11 12 25 4 19 1 25 -12 25
-13 0 -16 -6 -12 -25z"/>
<path d="M8470 8900 c20 -13 33 -13 25 0 -3 6 -14 10 -23 10 -15 0 -15 -2 -2
-10z"/>
<path d="M8153 8755 c0 -7 8 -10 19 -7 10 2 18 6 18 7 0 1 -8 5 -18 7 -11 3
-19 0 -19 -7z"/>
<path d="M6015 8350 c-3 -5 -1 -10 4 -10 6 0 11 5 11 10 0 6 -2 10 -4 10 -3 0
-8 -4 -11 -10z"/>
<path d="M6059 8262 c6 -12 16 -24 22 -28 8 -4 8 -1 0 14 -6 12 -16 24 -22 28
-8 4 -8 1 0 -14z"/>
<path d="M10470 6503 c0 -40 105 -181 221 -296 65 -65 126 -132 135 -149 19
-36 15 -149 -4 -156 -7 -2 -12 -7 -12 -11 0 -9 186 36 282 68 l67 22 -82 56
c-133 90 -363 278 -567 461 -30 27 -40 28 -40 5z"/>
<path d="M9843 6450 c-21 -27 -44 -47 -51 -45 -7 3 -11 1 -7 -4 9 -15 -70
-106 -148 -172 -91 -76 -156 -108 -296 -145 -61 -16 -111 -31 -111 -35 0 -4
10 -10 23 -13 21 -7 21 -7 2 -16 -15 -6 -7 -9 30 -9 133 -1 287 44 406 120
110 70 178 164 198 273 21 113 12 122 -46 46z"/>
<path d="M9746 6403 c-6 -14 -5 -15 5 -6 7 7 10 15 7 18 -3 3 -9 -2 -12 -12z"/>
<path d="M9740 6365 c-13 -14 -22 -27 -19 -29 2 -2 14 10 27 25 29 36 24 38
-8 4z"/>
<path d="M9706 6364 c-5 -14 -4 -15 9 -4 17 14 19 20 6 20 -5 0 -12 -7 -15
-16z"/>
<path d="M9666 6328 c3 -5 10 -6 15 -3 13 9 11 12 -6 12 -8 0 -12 -4 -9 -9z"/>
<path d="M9680 6295 c-7 -8 -17 -12 -22 -9 -12 8 -59 -36 -52 -47 9 -15 24
-10 24 7 0 8 3 13 8 11 4 -3 21 8 37 24 17 16 27 29 24 29 -4 0 -12 -7 -19
-15z"/>
<path d="M10322 5848 c-24 -13 -39 -24 -33 -26 10 -3 81 35 81 44 0 6 -2 6
-48 -18z"/>
<path d="M7041 12294 c0 -11 3 -14 6 -6 3 7 2 16 -1 19 -3 4 -6 -2 -5 -13z"/>
<path d="M7120 11421 c0 -5 7 -12 16 -15 14 -5 15 -4 4 9 -14 17 -20 19 -20 6z"/>
<path d="M7172 11394 c10 -10 20 -16 22 -13 3 3 -5 11 -17 18 -21 13 -21 12
-5 -5z"/>
<path d="M15262 10314 c-7 -8 -8 -14 -3 -14 10 0 25 19 20 25 -2 1 -10 -3 -17
-11z"/>
<path d="M15167 10188 c22 -23 22 -25 5 -58 -13 -26 -23 -34 -39 -32 -12 2
-25 -2 -29 -9 -4 -8 -3 -9 4 -5 9 5 12 -6 12 -38 0 -34 4 -46 15 -46 11 0 15
11 15 40 0 36 3 40 25 40 19 0 25 5 25 22 0 12 7 30 17 40 15 17 15 18 0 18
-12 0 -17 9 -18 28 0 15 -3 21 -6 15 -3 -10 -10 -10 -26 -2 l-22 12 22 -25z"/>
<path d="M15157 10169 c7 -7 15 -10 18 -7 3 3 -2 9 -12 12 -14 6 -15 5 -6 -5z"/>
<path d="M15042 10094 c-7 -8 -8 -14 -3 -14 10 0 25 19 20 25 -2 1 -10 -3 -17
-11z"/>
<path d="M15076 10093 c-6 -14 -5 -15 5 -6 7 7 10 15 7 18 -3 3 -9 -2 -12 -12z"/>
<path d="M15008 10030 c-18 -19 -23 -30 -14 -33 17 -7 62 18 48 27 -6 4 -9 13
-5 21 7 20 3 18 -29 -15z m22 -9 c0 -5 -7 -12 -16 -15 -14 -5 -15 -4 -4 9 14
17 20 19 20 6z"/>
<path d="M14944 9959 c-3 -6 3 -21 15 -32 18 -19 21 -19 21 -4 0 9 -7 17 -16
17 -10 0 -14 6 -10 15 6 17 0 20 -10 4z"/>
<path d="M15203 9945 c-3 -9 -3 -18 -1 -21 3 -3 8 4 11 16 6 23 -1 27 -10 5z"/>
<path d="M15026 9942 c-2 -4 -1 -14 5 -22 7 -12 9 -10 9 8 0 23 -5 28 -14 14z"/>
<path d="M15120 9920 c0 -16 5 -30 10 -30 6 0 10 14 10 30 0 17 -4 30 -10 30
-5 0 -10 -13 -10 -30z"/>
<path d="M15072 9905 c0 -11 3 -29 8 -40 11 -25 11 1 0 35 -6 20 -8 21 -8 5z"/>
<path d="M15098 9873 c-2 -22 -9 -29 -33 -33 -31 -5 -50 -40 -21 -40 18 0 22
-16 4 -22 -7 -3 -5 -13 7 -32 17 -25 20 -26 30 -12 14 19 32 21 37 5 2 -6 3
11 3 39 0 28 -4 54 -8 58 -13 13 -8 46 6 38 8 -5 8 -2 -2 9 -18 22 -19 22 -23
-10z"/>
<path d="M15040 9866 c0 -9 5 -16 10 -16 6 0 10 4 10 9 0 6 -4 13 -10 16 -5 3
-10 -1 -10 -9z"/>
<path d="M15120 9850 c0 -12 26 -31 33 -23 12 11 7 21 -13 26 -11 3 -20 2 -20
-3z"/>
<path d="M15130 9801 c0 -6 4 -13 10 -16 6 -3 7 1 4 9 -7 18 -14 21 -14 7z"/>
<path d="M15093 9718 c-14 -18 -23 -59 -12 -52 5 3 9 13 9 23 0 9 5 22 12 29
7 7 9 12 6 12 -3 0 -10 -6 -15 -12z"/>
<path d="M14774 9315 c-10 -8 -14 -15 -8 -15 6 0 17 7 24 15 16 19 9 19 -16 0z"/>
<path d="M14690 9695 c-7 -9 -11 -18 -8 -20 3 -3 11 1 18 10 7 9 11 18 8 20
-3 3 -11 -1 -18 -10z"/>
<path d="M14667 9654 c-4 -4 -7 -14 -7 -23 0 -11 3 -12 11 -4 6 6 10 16 7 23
-2 6 -7 8 -11 4z"/>
<path d="M14530 9468 c-12 -22 -12 -22 6 -6 10 10 15 20 12 24 -4 3 -12 -5
-18 -18z"/>
<path d="M14425 9320 c-3 -5 -1 -10 4 -10 6 0 11 5 11 10 0 6 -2 10 -4 10 -3
0 -8 -4 -11 -10z"/>
<path d="M14191 8944 c0 -11 3 -14 6 -6 3 7 2 16 -1 19 -3 4 -6 -2 -5 -13z"/>
<path d="M14170 8909 c0 -5 5 -7 10 -4 6 3 10 8 10 11 0 2 -4 4 -10 4 -5 0
-10 -5 -10 -11z"/>
<path d="M14240 8872 c-26 -9 -52 -39 -40 -47 6 -4 20 4 31 17 12 12 27 22 35
20 8 -2 14 -1 14 1 0 9 -25 14 -40 9z"/>
<path d="M14130 8825 c0 -5 5 -17 10 -25 5 -8 10 -10 10 -5 0 6 -5 17 -10 25
-5 8 -10 11 -10 5z"/>
<path d="M5601 9353 c7 -12 15 -20 18 -17 3 2 -3 12 -13 22 -17 16 -18 16 -5
-5z"/>
<path d="M5726 9177 c3 -10 9 -15 12 -12 3 3 0 11 -7 18 -10 9 -11 8 -5 -6z"/>
<path d="M11246 9013 c-6 -14 -5 -15 5 -6 7 7 10 15 7 18 -3 3 -9 -2 -12 -12z"/>
<path d="M7205 8835 c17 -8 37 -14 45 -15 13 0 13 -2 1 -9 -10 -7 -8 -9 10 -8
13 0 33 -3 44 -8 14 -5 17 -5 10 2 -10 11 -120 54 -133 52 -4 0 7 -7 23 -14z"/>
<path d="M6411 8614 c0 -11 3 -14 6 -6 3 7 2 16 -1 19 -3 4 -6 -2 -5 -13z"/>
<path d="M6426 8593 c-6 -14 -5 -15 5 -6 7 7 10 15 7 18 -3 3 -9 -2 -12 -12z"/>
<path d="M6290 8609 c0 -6 -7 -8 -17 -4 -13 4 -15 3 -7 -5 6 -6 18 -8 27 -4
18 7 23 24 7 24 -5 0 -10 -5 -10 -11z"/>
<path d="M11189 8073 c-13 -16 -12 -17 4 -4 9 7 17 15 17 17 0 8 -8 3 -21 -13z"/>
<path d="M11139 8041 c-39 -24 -102 -82 -96 -87 3 -3 24 13 47 35 39 38 70 55
55 31 -3 -5 -2 -10 4 -10 5 0 13 5 16 10 3 6 0 10 -7 10 -10 0 -9 3 2 10 8 5
12 11 10 13 -3 2 -17 -3 -31 -12z"/>
<path d="M11598 7853 c7 -3 16 -2 19 1 4 3 -2 6 -13 5 -11 0 -14 -3 -6 -6z"/>
<path d="M11080 7710 c-9 -6 -10 -10 -3 -10 6 0 15 5 18 10 8 12 4 12 -15 0z"/>
<path d="M10894 7579 c-8 -14 14 -19 25 -6 8 10 7 14 -5 14 -8 0 -17 -4 -20
-8z"/>
<path d="M8406 6546 c3 -8 15 -17 27 -20 31 -8 30 -2 -3 18 -24 13 -29 14 -24
2z"/>
<path d="M8473 6501 c0 -11 5 -18 9 -15 4 3 5 11 1 19 -7 21 -12 19 -10 -4z"/>
<path d="M8610 6416 c0 -8 51 -13 56 -5 3 5 -9 9 -25 9 -17 0 -31 -2 -31 -4z"/>
<path d="M7968 5933 c-29 -34 -88 -157 -79 -166 14 -14 135 -11 159 4 51 32
51 99 0 149 -34 34 -58 38 -80 13z m56 -119 c3 -8 2 -12 -4 -9 -6 3 -10 10
-10 16 0 14 7 11 14 -7z"/>
<path d="M8411 5571 c-28 -33 -51 -62 -51 -65 0 -4 15 1 33 10 17 10 47 17 65
15 28 -1 32 1 32 25 0 19 -4 25 -15 20 -17 -6 -21 9 -5 19 12 8 13 35 1 35 -4
0 -31 -27 -60 -59z"/>
<path d="M10743 5364 c3 -20 8 -39 11 -41 6 -6 90 7 105 16 8 5 10 18 5 34 -6
26 -10 27 -66 27 l-61 0 6 -36z"/>
<path d="M10044 5319 c-5 -7 -18 -38 -30 -66 l-22 -53 49 0 c56 0 58 5 30 84
-13 38 -20 46 -27 35z"/>
</g>
</svg>
